<?xml version="1.0" encoding="utf-8"?>
<!-- Generator: Adobe Illustrator 27.1.0, SVG Export Plug-In . SVG Version: 6.00 Build 0)  -->
<svg version="1.1" xmlns="http://www.w3.org/2000/svg" xmlns:xlink="http://www.w3.org/1999/xlink" x="0px" y="0px"
	 viewBox="0 0 143.74 143.69" style="enable-background:new 0 0 143.74 143.69;" xml:space="preserve">
<style type="text/css">
	.st0{fill:#1D1D1B;}
	.st1{fill:#575756;stroke:#1D1D1B;stroke-miterlimit:10;}
	.st2{fill:#FFF766;}
	.st3{fill:#3C3C3B;}
	.st4{fill:#FFF066;}
	.st5{fill:none;stroke:#3C3C3B;stroke-width:2;stroke-miterlimit:10;}
	.st6{fill:#FFF766;stroke:#3C3C3B;stroke-width:2;stroke-miterlimit:10;}
	.st7{fill:#3C3C3B;stroke:#FFF066;stroke-width:3;stroke-miterlimit:10;}
	.st8{fill:#3C3C3B;stroke:#3C3C3B;stroke-width:2;stroke-miterlimit:10;}
	.st9{fill:#FFF766;stroke:#3C3C3B;stroke-miterlimit:10;}
	.st10{fill:#3C3C3B;stroke:#3C3C3B;stroke-miterlimit:10;}
	.st11{fill:none;stroke:#FFF766;stroke-width:2;stroke-miterlimit:10;}
</style>
<g id="fond">
</g>
<g id="fond_couleur">
</g>
<g id="elements">
	<g>
		<g>
			<path class="st2" d="M108.76,49.75v-1.48l4.73-4.48c0.38-0.37,0.67-0.7,0.86-0.98c0.19-0.28,0.32-0.54,0.39-0.79
				c0.07-0.24,0.1-0.47,0.1-0.69c0-0.54-0.19-0.96-0.57-1.26s-0.94-0.45-1.67-0.45c-0.57,0-1.08,0.1-1.55,0.3
				c-0.47,0.2-0.87,0.51-1.21,0.92l-1.54-1.17c0.46-0.62,1.09-1.11,1.87-1.45c0.79-0.34,1.67-0.52,2.64-0.52
				c0.86,0,1.61,0.14,2.24,0.42c0.63,0.28,1.12,0.67,1.48,1.18c0.35,0.51,0.53,1.11,0.53,1.8c0,0.4-0.05,0.78-0.15,1.16
				c-0.1,0.38-0.29,0.78-0.58,1.2s-0.7,0.9-1.24,1.42l-4.07,3.83l-0.46-0.83h6.95v1.87H108.76z"/>
		</g>
		<path class="st11" d="M83.26,91.31l7.27,23.39l16.86,18.4c-22.71,13.11-49.64,12.26-70.87,0.11l7.52-23.82l16.62-17.98
			C67.45,95.24,76.02,95.49,83.26,91.31z"/>
		<path class="st11" d="M60.47,52.27L53.2,28.88l-16.86-18.4c22.71-13.11,49.64-12.26,70.87-0.11l-7.52,23.82L83.08,52.17
			C76.29,48.34,67.71,48.09,60.47,52.27z"/>
		<g>
			<path class="st2" d="M71.95,32.55V21.52l0.93,1.02h-3.48v-1.87h4.73v11.87H71.95z"/>
		</g>
		<polygon class="st2" points="77.32,118.34 75.26,118.34 75.26,115.95 73.17,115.95 73.17,118.34 69.3,118.34 74.8,111.03 
			72.44,111.03 66.59,118.68 66.59,120.19 73.12,120.19 73.12,122.91 75.26,122.91 75.26,120.19 77.32,120.19 		"/>
		<path class="st11" d="M83.08,52.16L99.7,34.17l7.51-23.8c22.71,13.11,35.43,36.86,35.53,61.32l-24.39,5.4l-23.88-5.4
			C94.39,63.89,90.32,56.34,83.08,52.16z"/>
		<path class="st11" d="M60.65,91.43l-16.62,17.99l-7.51,23.8C13.81,120.11,1.08,96.36,0.99,71.9l24.39-5.4l23.88,5.4
			C49.34,79.69,53.41,87.25,60.65,91.43z"/>
		<path class="st2" d="M30.68,105.88c-0.83,0-1.64-0.12-2.43-0.36s-1.47-0.58-2.01-1.02l0.93-1.71c0.43,0.35,0.95,0.63,1.57,0.85
			s1.25,0.32,1.91,0.32c0.79,0,1.41-0.16,1.87-0.48c0.45-0.32,0.68-0.77,0.68-1.33c0-0.37-0.1-0.7-0.29-0.98
			c-0.19-0.28-0.52-0.5-0.98-0.65c-0.46-0.15-1.11-0.23-1.95-0.23h-2.85l0.61-6.45h6.97v1.87h-6.17l1.17-1.05l-0.46,4.83l-1.15-1.05
			h2.37c1.19,0,2.14,0.16,2.87,0.47c0.72,0.31,1.25,0.74,1.58,1.29c0.33,0.55,0.49,1.17,0.49,1.88c0,0.69-0.17,1.32-0.51,1.9
			s-0.85,1.04-1.54,1.39C32.66,105.71,31.77,105.88,30.68,105.88z"/>
		<g>
			<g>
				<path class="st2" d="M112.86,108.42c-0.83,0-1.64-0.12-2.43-0.36c-0.8-0.24-1.47-0.58-2.01-1.02l0.93-1.71
					c0.43,0.35,0.96,0.63,1.58,0.85c0.62,0.21,1.26,0.32,1.92,0.32c0.78,0,1.4-0.16,1.85-0.48c0.45-0.32,0.68-0.76,0.68-1.31
					c0-0.54-0.21-0.97-0.62-1.29c-0.41-0.32-1.07-0.48-1.98-0.48h-1.09v-1.51l3.39-4.04l0.31,0.85h-6.38v-1.87h8.07v1.48l-3.39,4.02
					l-1.15-0.66h0.68c1.45,0,2.54,0.33,3.27,0.98c0.73,0.65,1.09,1.48,1.09,2.5c0,0.67-0.17,1.29-0.51,1.86
					c-0.34,0.57-0.86,1.03-1.55,1.37C114.82,108.25,113.94,108.42,112.86,108.42z"/>
			</g>
		</g>
		<path class="st11" d="M94.48,71.69l23.89,5.4l24.37-5.4c0,26.22-14.21,49.12-35.34,61.43l-16.87-18.42l-7.26-23.38
			C89.97,87.35,94.48,80.05,94.48,71.69z"/>
		<path class="st11" d="M49.26,71.89l-23.89-5.4L1,71.89C1,45.67,15.2,22.77,36.34,10.47l16.87,18.42l7.26,23.38
			C53.76,56.23,49.26,63.53,49.26,71.89z"/>
		<path class="st2" d="M31.12,47.29c-1.06,0-1.98-0.23-2.75-0.68c-0.77-0.45-1.36-1.12-1.76-1.99c-0.41-0.88-0.61-1.95-0.61-3.21
			c0-1.37,0.25-2.52,0.74-3.46c0.49-0.94,1.18-1.65,2.05-2.14c0.88-0.49,1.89-0.73,3.04-0.73c0.58,0,1.14,0.06,1.69,0.19
			c0.55,0.12,1.03,0.31,1.43,0.56l-0.83,1.68c-0.33-0.21-0.68-0.36-1.06-0.44s-0.78-0.12-1.21-0.12c-1.11,0-1.99,0.34-2.65,1.03
			c-0.66,0.68-0.99,1.7-0.99,3.04c0,0.23,0.01,0.48,0.03,0.76c0.02,0.28,0.06,0.57,0.14,0.85l-0.7-0.73
			c0.2-0.46,0.48-0.85,0.84-1.16c0.36-0.31,0.78-0.55,1.27-0.7c0.49-0.16,1.03-0.24,1.6-0.24c0.78,0,1.48,0.15,2.09,0.46
			c0.61,0.3,1.1,0.73,1.46,1.27s0.54,1.19,0.54,1.93c0,0.77-0.19,1.45-0.58,2.03c-0.38,0.58-0.9,1.03-1.56,1.34
			S31.94,47.29,31.12,47.29z M31.02,45.56c0.45,0,0.86-0.08,1.21-0.25c0.36-0.16,0.63-0.4,0.81-0.7c0.19-0.3,0.28-0.66,0.28-1.07
			c0-0.61-0.21-1.1-0.64-1.47c-0.42-0.37-1-0.55-1.72-0.55c-0.48,0-0.89,0.09-1.25,0.26c-0.36,0.18-0.64,0.42-0.84,0.72
			c-0.2,0.3-0.31,0.66-0.31,1.05c0,0.36,0.09,0.7,0.28,1c0.19,0.31,0.46,0.55,0.83,0.73C30.05,45.47,30.5,45.56,31.02,45.56z"/>
	</g>
</g>
</svg>
