<?xml version="1.0" encoding="utf-8"?>
<!-- Generator: Adobe Illustrator 27.1.0, SVG Export Plug-In . SVG Version: 6.00 Build 0)  -->
<svg version="1.1" xmlns="http://www.w3.org/2000/svg" xmlns:xlink="http://www.w3.org/1999/xlink" x="0px" y="0px"
	 viewBox="0 0 144.24 144.18" style="enable-background:new 0 0 144.24 144.18;" xml:space="preserve">
<style type="text/css">
	.st0{fill:#1D1D1B;}
	.st1{fill:#575756;stroke:#1D1D1B;stroke-miterlimit:10;}
	.st2{fill:#FFF766;}
	.st3{fill:#3C3C3B;}
	.st4{fill:#FFF066;}
	.st5{fill:none;stroke:#3C3C3B;stroke-width:2;stroke-miterlimit:10;}
	.st6{fill:#FFF766;stroke:#3C3C3B;stroke-width:2;stroke-miterlimit:10;}
	.st7{fill:#3C3C3B;stroke:#FFF066;stroke-width:3;stroke-miterlimit:10;}
	.st8{fill:#3C3C3B;stroke:#3C3C3B;stroke-width:2;stroke-miterlimit:10;}
	.st9{fill:#FFF766;stroke:#3C3C3B;stroke-miterlimit:10;}
	.st10{fill:#3C3C3B;stroke:#3C3C3B;stroke-miterlimit:10;}
	.st11{fill:none;stroke:#FFF766;stroke-width:2;stroke-miterlimit:10;}
	.st12{fill:none;stroke:#3C3C3B;stroke-miterlimit:10;}
	.st13{fill:none;stroke:#3C3C3B;stroke-width:2.5;stroke-miterlimit:10;}
</style>
<g id="fond">
</g>
<g id="fond_couleur">
</g>
<g id="elements">
	<path class="st13" d="M83.51,91.64l7.27,23.39l16.86,18.4c-22.71,13.11-49.64,12.26-70.87,0.11l7.52-23.82L60.9,91.74
		C67.69,95.57,76.27,95.82,83.51,91.64z"/>
	<path class="st13" d="M60.9,91.74l-16.62,17.99l-7.51,23.8C14.07,120.42,1.34,96.67,1.25,72.21l24.39-5.4l23.88,5.4
		C49.59,80,53.67,87.56,60.9,91.74z"/>
	<path class="st13" d="M83.34,52.49L99.96,34.5l7.51-23.8c22.71,13.11,35.43,36.86,35.53,61.32l-24.39,5.4l-23.88-5.4
		C94.65,64.22,90.57,56.67,83.34,52.49z"/>
	<path class="st3" d="M25.41,108.39v-2.01l6.46-6.11c0.52-0.51,0.92-0.96,1.18-1.34c0.26-0.39,0.44-0.74,0.53-1.08
		c0.09-0.33,0.14-0.64,0.14-0.94c0-0.74-0.26-1.32-0.78-1.73c-0.52-0.41-1.28-0.61-2.28-0.61c-0.77,0-1.48,0.14-2.12,0.42
		c-0.64,0.28-1.19,0.69-1.66,1.25l-2.11-1.6c0.63-0.85,1.49-1.51,2.56-1.98c1.07-0.47,2.27-0.71,3.6-0.71
		c1.17,0,2.19,0.19,3.06,0.57c0.86,0.38,1.54,0.91,2.01,1.61c0.48,0.69,0.72,1.51,0.72,2.45c0,0.54-0.07,1.07-0.21,1.59
		c-0.14,0.52-0.4,1.07-0.79,1.64s-0.95,1.22-1.69,1.93l-5.56,5.23l-0.63-1.13h9.5v2.55H25.41z"/>
	<path class="st3" d="M72.45,125.4v-15.05l1.27,1.39h-4.75v-2.55h6.46v16.21H72.45z"/>
	<path class="st3" d="M108.09,9.6C85.81-3.15,58.18-3.11,35.98,9.71l-1.35,0.78l17.72,19.34L60,54.45l1.35-0.78
		c6.56-3.79,14.75-3.83,21.36-0.09l0.86,0.49l17.48-18.92l7.9-25.05L108.09,9.6z M79.37,31.33h-2.83v3.71h-2.92v-3.71h-8.92v-2.06
		l7.99-10.44h3.22l-7.5,9.98h5.28v-3.27h2.85v3.27h2.83V31.33z"/>
	<path class="st3" d="M112.98,52.28c-1.13,0-2.23-0.16-3.32-0.49c-1.09-0.32-2-0.79-2.74-1.39l1.27-2.34
		c0.59,0.48,1.3,0.86,2.14,1.16s1.71,0.44,2.61,0.44c1.08,0,1.93-0.22,2.55-0.66c0.62-0.44,0.93-1.05,0.93-1.82
		c0-0.51-0.13-0.96-0.39-1.34c-0.26-0.39-0.71-0.68-1.34-0.89c-0.63-0.21-1.52-0.31-2.66-0.31h-3.89l0.83-8.8h9.52v2.55h-8.43
		l1.6-1.44l-0.63,6.6l-1.57-1.44h3.24c1.62,0,2.93,0.21,3.91,0.64c0.99,0.43,1.71,1.01,2.15,1.76c0.45,0.75,0.67,1.6,0.67,2.56
		c0,0.94-0.23,1.81-0.69,2.59c-0.46,0.79-1.17,1.42-2.11,1.9C115.67,52.04,114.46,52.28,112.98,52.28z"/>
	<path class="st13" d="M94.72,72.02l23.89,5.4l24.37-5.4c0,26.22-14.21,49.12-35.34,61.43l-16.87-18.42l-7.26-23.38
		C90.22,87.68,94.72,80.37,94.72,72.02z"/>
	<path class="st3" d="M30.81,49.72c-1.13,0-2.23-0.16-3.32-0.49c-1.09-0.32-2-0.79-2.74-1.39l1.27-2.34
		c0.59,0.48,1.3,0.86,2.15,1.16c0.85,0.29,1.72,0.44,2.62,0.44c1.07,0,1.91-0.22,2.52-0.66c0.62-0.44,0.93-1.04,0.93-1.79
		c0-0.74-0.28-1.33-0.85-1.76c-0.56-0.43-1.46-0.65-2.7-0.65h-1.48v-2.06l4.63-5.51l0.42,1.16h-8.71v-2.55h11.02v2.01l-4.63,5.49
		l-1.57-0.9h0.93c1.98,0,3.46,0.44,4.46,1.33c1,0.89,1.49,2.03,1.49,3.42c0,0.91-0.23,1.76-0.69,2.53c-0.46,0.78-1.17,1.4-2.12,1.87
		C33.49,49.49,32.28,49.72,30.81,49.72z"/>
	<path class="st13" d="M49.52,72.21l-23.89-5.4l-24.37,5.4c0-26.22,14.21-49.12,35.34-61.43l16.87,18.42l7.26,23.38
		C54.02,56.55,49.52,63.85,49.52,72.21z"/>
	<path class="st3" d="M113.76,111.07c-1.45,0-2.7-0.31-3.75-0.93c-1.05-0.62-1.85-1.52-2.41-2.72c-0.56-1.2-0.83-2.66-0.83-4.39
		c0-1.87,0.34-3.44,1.01-4.73c0.67-1.28,1.61-2.25,2.8-2.92c1.2-0.66,2.58-1,4.16-1c0.79,0,1.56,0.09,2.3,0.25
		c0.75,0.17,1.4,0.43,1.96,0.76l-1.13,2.29c-0.45-0.29-0.93-0.49-1.45-0.6c-0.52-0.11-1.07-0.16-1.66-0.16
		c-1.51,0-2.72,0.47-3.62,1.4c-0.9,0.93-1.36,2.32-1.36,4.16c0,0.31,0.01,0.66,0.04,1.04c0.02,0.39,0.09,0.77,0.2,1.16l-0.95-1
		c0.28-0.63,0.66-1.16,1.15-1.59c0.49-0.43,1.07-0.75,1.74-0.96c0.67-0.22,1.4-0.32,2.19-0.32c1.07,0,2.01,0.21,2.85,0.63
		c0.83,0.42,1.5,0.99,1.99,1.74s0.74,1.62,0.74,2.64c0,1.05-0.26,1.97-0.79,2.77c-0.53,0.79-1.24,1.41-2.13,1.83
		C115.9,110.85,114.89,111.07,113.76,111.07z M113.63,108.7c0.62,0,1.17-0.11,1.66-0.34c0.49-0.22,0.86-0.54,1.11-0.96
		c0.25-0.42,0.38-0.9,0.38-1.46c0-0.83-0.29-1.5-0.87-2c-0.58-0.5-1.36-0.75-2.35-0.75c-0.65,0-1.22,0.12-1.7,0.36
		c-0.49,0.24-0.87,0.57-1.15,0.99c-0.28,0.42-0.42,0.89-0.42,1.44c0,0.49,0.13,0.95,0.38,1.37c0.25,0.42,0.63,0.75,1.13,1
		C112.31,108.58,112.92,108.7,113.63,108.7z"/>
</g>
</svg>
