<?xml version="1.0" encoding="utf-8"?>
<!-- Generator: Adobe Illustrator 27.1.0, SVG Export Plug-In . SVG Version: 6.00 Build 0)  -->
<svg version="1.1" xmlns="http://www.w3.org/2000/svg" xmlns:xlink="http://www.w3.org/1999/xlink" x="0px" y="0px"
	 viewBox="0 0 57.7 57.67" style="enable-background:new 0 0 57.7 57.67;" xml:space="preserve">
<style type="text/css">
	.st0{fill:#1D1D1B;}
	.st1{fill:#575756;stroke:#1D1D1B;stroke-miterlimit:10;}
	.st2{fill:#FFF766;}
	.st3{fill:#3C3C3B;}
	.st4{fill:#FFF066;}
	.st5{fill:none;stroke:#3C3C3B;stroke-width:2;stroke-miterlimit:10;}
	.st6{fill:#FFF766;stroke:#3C3C3B;stroke-width:2;stroke-miterlimit:10;}
	.st7{fill:#3C3C3B;stroke:#FFF066;stroke-width:3;stroke-miterlimit:10;}
	.st8{fill:#3C3C3B;stroke:#3C3C3B;stroke-width:2;stroke-miterlimit:10;}
	.st9{fill:#FFF766;stroke:#3C3C3B;stroke-miterlimit:10;}
	.st10{fill:#3C3C3B;stroke:#3C3C3B;stroke-miterlimit:10;}
	.st11{fill:none;stroke:#FFF766;stroke-width:2;stroke-miterlimit:10;}
	.st12{fill:none;stroke:#3C3C3B;stroke-miterlimit:10;}
</style>
<g id="fond">
</g>
<g id="fond_couleur">
</g>
<g id="elements">
	<g>
		<path class="st12" d="M33.4,36.65L36.31,46l6.74,7.36c-9.08,5.24-19.86,4.9-28.35,0.04l3.01-9.53l6.65-7.19
			C27.08,38.22,30.51,38.32,33.4,36.65z"/>
		<path class="st12" d="M24.36,36.68l-6.65,7.2l-3,9.52C5.63,48.16,0.54,38.66,0.5,28.87l9.76-2.16l9.55,2.16
			C19.84,31.99,21.47,35.01,24.36,36.68z"/>
		<g>
			<path class="st12" d="M33.33,20.99l6.65-7.2l3-9.52C52.07,9.51,57.16,19.01,57.2,28.8l-9.76,2.16l-9.55-2.16
				C37.86,25.68,36.23,22.66,33.33,20.99z"/>
			<path class="st3" d="M43,20.9v-0.81l2.58-2.45c0.21-0.2,0.37-0.38,0.47-0.54c0.11-0.15,0.18-0.3,0.21-0.43
				c0.04-0.13,0.06-0.26,0.06-0.37c0-0.3-0.1-0.53-0.31-0.69c-0.21-0.16-0.51-0.25-0.91-0.25c-0.31,0-0.59,0.06-0.85,0.17
				c-0.26,0.11-0.48,0.28-0.66,0.5l-0.84-0.64c0.25-0.34,0.59-0.6,1.02-0.79c0.43-0.19,0.91-0.28,1.44-0.28
				c0.47,0,0.88,0.08,1.22,0.23c0.35,0.15,0.61,0.37,0.81,0.64c0.19,0.28,0.29,0.61,0.29,0.98c0,0.22-0.03,0.43-0.08,0.63
				c-0.06,0.21-0.16,0.43-0.31,0.66c-0.15,0.23-0.38,0.49-0.68,0.77l-2.22,2.09l-0.25-0.45h3.8v1.02H43z"/>
		</g>
		<g>
			<path class="st12" d="M24.29,21.03l-2.91-9.36l-6.74-7.36c9.08-5.24,19.86-4.9,28.35-0.04l-3.01,9.53l-6.65,7.19
				C30.62,19.46,27.19,19.36,24.29,21.03z"/>
			<path class="st3" d="M28.91,14.01V7.99l0.51,0.56h-1.9V7.52h2.58v6.48H28.91z"/>
		</g>
		<polygon class="st3" points="31.82,47.66 30.68,47.66 30.68,46.35 29.55,46.35 29.55,47.66 27.43,47.66 30.43,43.67 29.15,43.67 
			25.95,47.84 25.95,48.67 29.52,48.67 29.52,50.15 30.68,50.15 30.68,48.67 31.82,48.67 		"/>
		<path class="st3" d="M12.36,43.35c-0.45,0-0.89-0.07-1.33-0.19c-0.44-0.13-0.8-0.32-1.1-0.56l0.51-0.94
			c0.23,0.19,0.52,0.35,0.86,0.46c0.34,0.12,0.68,0.18,1.04,0.18c0.43,0,0.77-0.09,1.02-0.26c0.25-0.18,0.37-0.42,0.37-0.73
			c0-0.2-0.05-0.38-0.16-0.54c-0.11-0.15-0.28-0.27-0.54-0.36c-0.25-0.08-0.61-0.12-1.07-0.12h-1.56l0.33-3.52h3.81v1.02h-3.37
			l0.64-0.57l-0.25,2.64l-0.63-0.57h1.3c0.65,0,1.17,0.08,1.57,0.25c0.4,0.17,0.68,0.4,0.86,0.7c0.18,0.3,0.27,0.64,0.27,1.02
			c0,0.38-0.09,0.72-0.28,1.04s-0.47,0.57-0.84,0.76C13.44,43.25,12.95,43.35,12.36,43.35z"/>
		<g>
			<path class="st12" d="M37.89,28.8l9.56,2.16l9.75-2.16c0,10.49-5.68,19.65-14.14,24.57L36.31,46l-2.91-9.35
				C36.09,35.06,37.89,32.14,37.89,28.8z"/>
			<path class="st3" d="M45.23,44.37c-0.45,0-0.89-0.07-1.33-0.19c-0.44-0.13-0.8-0.32-1.1-0.56l0.51-0.94
				c0.23,0.19,0.52,0.35,0.86,0.46c0.34,0.12,0.69,0.18,1.05,0.18c0.43,0,0.76-0.09,1.01-0.26c0.25-0.18,0.37-0.42,0.37-0.72
				c0-0.3-0.11-0.53-0.34-0.7c-0.23-0.17-0.59-0.26-1.08-0.26h-0.59v-0.82l1.85-2.2l0.17,0.46h-3.48v-1.02h4.41v0.81l-1.85,2.2
				l-0.63-0.36h0.37c0.79,0,1.38,0.18,1.78,0.53c0.4,0.36,0.6,0.81,0.6,1.37c0,0.36-0.09,0.7-0.28,1.01
				c-0.19,0.31-0.47,0.56-0.85,0.75C46.3,44.28,45.81,44.37,45.23,44.37z"/>
		</g>
		<g>
			<path class="st12" d="M19.81,28.88l-9.56-2.16L0.5,28.88c0-10.49,5.68-19.65,14.14-24.57l6.75,7.37l2.91,9.35
				C21.61,22.62,19.81,25.54,19.81,28.88z"/>
			<path class="st3" d="M12.61,19.93c-0.58,0-1.08-0.12-1.5-0.37c-0.42-0.25-0.74-0.61-0.96-1.09c-0.22-0.48-0.33-1.06-0.33-1.76
				c0-0.75,0.13-1.38,0.4-1.89c0.27-0.51,0.64-0.9,1.12-1.17c0.48-0.27,1.03-0.4,1.66-0.4c0.31,0,0.62,0.03,0.92,0.1
				c0.3,0.07,0.56,0.17,0.78,0.31l-0.45,0.92c-0.18-0.12-0.37-0.2-0.58-0.24c-0.21-0.04-0.43-0.06-0.66-0.06
				c-0.61,0-1.09,0.19-1.45,0.56c-0.36,0.37-0.54,0.93-0.54,1.66c0,0.12,0,0.26,0.01,0.42c0.01,0.15,0.04,0.31,0.08,0.46l-0.38-0.4
				c0.11-0.25,0.26-0.46,0.46-0.63c0.19-0.17,0.43-0.3,0.69-0.38c0.27-0.09,0.56-0.13,0.88-0.13c0.43,0,0.81,0.08,1.14,0.25
				c0.33,0.17,0.6,0.4,0.8,0.69c0.2,0.3,0.3,0.65,0.3,1.06c0,0.42-0.11,0.79-0.31,1.11c-0.21,0.32-0.49,0.56-0.85,0.73
				C13.46,19.85,13.06,19.93,12.61,19.93z M12.55,18.99c0.25,0,0.47-0.04,0.66-0.13c0.19-0.09,0.34-0.22,0.44-0.38
				c0.1-0.17,0.15-0.36,0.15-0.58c0-0.33-0.12-0.6-0.35-0.8c-0.23-0.2-0.55-0.3-0.94-0.3c-0.26,0-0.49,0.05-0.68,0.14
				c-0.19,0.1-0.35,0.23-0.46,0.39c-0.11,0.17-0.17,0.36-0.17,0.57c0,0.2,0.05,0.38,0.15,0.55c0.1,0.17,0.25,0.3,0.45,0.4
				C12.02,18.94,12.27,18.99,12.55,18.99z"/>
		</g>
	</g>
</g>
</svg>
