<?xml version="1.0" encoding="UTF-8"?><svg id="elements" xmlns="http://www.w3.org/2000/svg" viewBox="0 0 57.7 57.67"><defs><style>.cls-1{fill:#3c3c3b;}.cls-2{fill:none;stroke:#3c3c3b;stroke-miterlimit:10;}</style></defs><path class="cls-2" d="m33.4,36.65l2.91,9.36,6.74,7.36c-9.08,5.24-19.86,4.9-28.35.04l3.01-9.53,6.65-7.19c2.71,1.53,6.15,1.63,9.04-.04Z"/><path class="cls-2" d="m24.36,36.69l-6.65,7.2-3,9.52C5.63,48.17.54,38.67.5,28.88l9.76-2.16,9.55,2.16c.03,3.12,1.66,6.14,4.55,7.81Z"/><path class="cls-2" d="m33.33,21l6.65-7.2,3-9.52c9.08,5.24,14.17,14.75,14.21,24.53l-9.76,2.16-9.55-2.16c-.03-3.12-1.66-6.14-4.55-7.81Z"/><path class="cls-1" d="m10.17,43.36v-.81l2.58-2.45c.21-.2.37-.38.47-.54.11-.15.18-.3.21-.43.04-.13.06-.26.06-.37,0-.3-.1-.53-.31-.69s-.51-.25-.91-.25c-.31,0-.59.06-.85.17-.26.11-.48.28-.66.5l-.84-.64c.25-.34.59-.6,1.02-.79.43-.19.91-.28,1.44-.28.47,0,.88.08,1.22.23.35.15.61.37.81.64.19.28.29.61.29.98s-.03.43-.08.63c-.06.21-.16.43-.31.66s-.38.49-.68.77l-2.22,2.09-.25-.45h3.8v1.02s-4.78,0-4.78,0Z"/><path class="cls-1" d="m28.98,50.15v-6.02s.51.56.51.56h-1.9v-1.02h2.58v6.48h-1.19Z"/><path class="cls-1" d="m43.24,3.84c-8.91-5.1-19.96-5.08-28.85.04l-.54.31,7.09,7.74,3.06,9.85.54-.31c2.62-1.51,5.9-1.53,8.55-.04l.34.19,6.92-7.48,3.24-10.1-.35-.2Zm-11.49,8.69h-1.13v1.48h-1.17v-1.48h-3.57v-.82l3.2-4.18h1.29l-3,3.99h2.11v-1.31h1.14v1.31h1.13v1.01Z"/><path class="cls-1" d="m45.19,20.91c-.45,0-.89-.07-1.33-.19s-.8-.32-1.1-.56l.51-.94c.23.19.52.35.86.46s.68.18,1.04.18c.43,0,.77-.09,1.02-.26.25-.18.37-.42.37-.73,0-.2-.05-.38-.16-.54-.11-.15-.28-.27-.54-.36-.25-.08-.61-.12-1.07-.12h-1.56l.33-3.52h3.81v1.02s-3.37,0-3.37,0l.64-.57-.25,2.64-.63-.57h1.3c.65,0,1.17.08,1.57.25.4.17.68.4.86.7.18.3.27.64.27,1.02,0,.38-.09.72-.28,1.04s-.47.57-.84.76c-.38.19-.86.29-1.45.29Z"/><path class="cls-2" d="m37.89,28.8l9.56,2.16,9.75-2.16c0,10.49-5.68,19.65-14.14,24.57l-6.75-7.37-2.91-9.35c2.68-1.58,4.49-4.51,4.49-7.85Z"/><path class="cls-1" d="m12.32,19.89c-.45,0-.89-.07-1.33-.19-.44-.13-.8-.32-1.1-.56l.51-.94c.23.19.52.35.86.46.34.12.69.18,1.05.18.43,0,.76-.09,1.01-.26.25-.18.37-.42.37-.72s-.11-.53-.34-.7c-.23-.17-.59-.26-1.08-.26h-.59v-.82l1.85-2.2.17.46h-3.48v-1.02s4.41,0,4.41,0v.81l-1.85,2.2-.63-.36h.37c.79,0,1.38.18,1.78.53.4.36.6.81.6,1.37,0,.36-.09.7-.28,1.01-.19.31-.47.56-.85.75-.38.19-.86.28-1.45.28Z"/><path class="cls-2" d="m19.81,28.88l-9.56-2.16L.5,28.88c0-10.49,5.68-19.65,14.14-24.57l6.75,7.37,2.91,9.35c-2.68,1.58-4.49,4.51-4.49,7.85Z"/><path class="cls-1" d="m45.51,44.42c-.58,0-1.08-.12-1.5-.37-.42-.25-.74-.61-.96-1.09-.22-.48-.33-1.06-.33-1.76,0-.75.13-1.38.4-1.89.27-.51.64-.9,1.12-1.17.48-.27,1.03-.4,1.66-.4.31,0,.62.03.92.1.3.07.56.17.78.31l-.45.92c-.18-.12-.37-.2-.58-.24s-.43-.06-.66-.06c-.61,0-1.09.19-1.45.56-.36.37-.54.93-.54,1.66s0,.26.01.42c0,.15.04.31.08.46l-.38-.4c.11-.25.26-.46.46-.63.19-.17.43-.3.69-.38.27-.09.56-.13.88-.13.43,0,.81.08,1.14.25.33.17.6.4.8.69s.3.65.3,1.06-.11.79-.31,1.11c-.21.32-.49.56-.85.73s-.76.25-1.21.25Zm-.06-.95c.25,0,.47-.04.66-.13.19-.09.34-.22.44-.38.1-.17.15-.36.15-.58,0-.33-.12-.6-.35-.8-.23-.2-.55-.3-.94-.3-.26,0-.49.05-.68.14-.19.1-.35.23-.46.39-.11.17-.17.36-.17.57,0,.2.05.38.15.55.1.17.25.3.45.4.2.1.44.15.73.15Z"/></svg>